# xmcd
#
# Track frame offsets: 
#        150
#        7072
#        20252
#        54155
#        82150
#        100807
#        120180
#        148402
#        152602
#        170437
#        191880
#        216350
#        242265
#        276060
#        310740
#
# Disc length: 4192 seconds
#
# Revision: 6
# Processed by: cddbd v1.5.2PL0 Copyright (c) Steve Scherf et al.
# Submitted via: ExactAudioCopy v0.99pb5
#
DISCID=c5105e0f
DTITLE=Various Artist - Q's Jook Joint
DYEAR=1995
DGENRE=R&B
TTITLE0=Quincy Jones - Jook Joint Intro
TTITLE1=Quincy Jones - Stevie Wonder - Bono - Ray Charles - Let The Good 
TTITLE1=Times Roll
TTITLE2=Quincy Jones - Tone Loc - Queen Latifan - Nancy Wilson  - Coll Jo
TTITLE2=e, Mean Joe (Killer Joe)
TTITLE3=Quincy Jones - Tamia - You Put A Move On My Heart
TTITLE4=Quincy Jones - Brandy - Heavy D - Rock With You
TTITLE5=Quincy Jones - Brian McKnight - Rachelle Ferrell - Take 6 - James 
TTITLE5=Moody  - Moody's Modd For Love
TTITLE6=Quincy Jones - Cast Of 'Stomp' - Stomp
TTITLE7=Quincy Jones - Ray Charles - Funkmaster Flex - Jook Joint Repris
TTITLE7=e (Let The Good Times Roll)
TTITLE8=Quincy Jones - Phil Collins - Do Nothin' Till You Hear From Me
TTITLE9=Quincy Jones - Gloria Estefan - Warren Wiebe - Is It Love That W
TTITLE9=e're Missin'
TTITLE10=Quincy Jones - R Kelly - Ron Isley - Aaron Hall - Charlie Wilson;
TTITLE10=Naomi Campbell - Heaven's Girl
TTITLE11=Quincy Jones - Charlie Wilson - Ray Charles - Brandy - Chaka Khan
TTITLE11=Ashford and Simpson - Stuff Like That
TTITLE12=Quincy Jones - SWV - Babyface - Portrait - Barry White - Slow Jam
TTITLE12=s
TTITLE13=Quincy Jones - Toots Thielemans - Barry White - Mervyn Warren - 
TTITLE13=At The End Of The Day (Grace)
TTITLE14=Quincy Jones - Barry White - Tamia - Toots Thielemans - Jook Joi
TTITLE14=nt Outro
EXTD=
EXTT0=
EXTT1=
EXTT2=
EXTT3=
EXTT4=
EXTT5=
EXTT6=
EXTT7=
EXTT8=
EXTT9=
EXTT10=
EXTT11=
EXTT12=
EXTT13=
EXTT14=
PLAYORDER=
